<mxfile modified="2021-12-19T14:25:35.076Z" host="app.diagrams.net" agent="5.0 (Macintosh; Intel Mac OS X 10_15_7) AppleWebKit/605.1.15 (KHTML, like Gecko) Version/15.1 Safari/605.1.15" etag="BZa546KJD8bHVRnaBzcR" version="16.0.0" type="github">
  <diagram id="Ht1M8jgEwFfnCIfOTk4-" name="Page-1">
    <mxGraphModel dx="1552" dy="1325" grid="1" gridSize="10" guides="1" tooltips="1" connect="1" arrows="1" fold="1" page="1" pageScale="1" pageWidth="1169" pageHeight="827" background="none" math="0" shadow="0">
      <root>
        <mxCell id="0" />
        <mxCell id="1" parent="0" />
        <mxCell id="9Flzm60PT0xl-Il_RI56-83" style="edgeStyle=orthogonalEdgeStyle;rounded=0;orthogonalLoop=1;jettySize=auto;html=1;fontSize=14;fontColor=#1A1A1A;" edge="1" parent="1" target="9Flzm60PT0xl-Il_RI56-75">
          <mxGeometry relative="1" as="geometry">
            <mxPoint x="350" y="348" as="sourcePoint" />
          </mxGeometry>
        </mxCell>
        <mxCell id="9Flzm60PT0xl-Il_RI56-52" value="VPC" style="points=[[0,0],[0.25,0],[0.5,0],[0.75,0],[1,0],[1,0.25],[1,0.5],[1,0.75],[1,1],[0.75,1],[0.5,1],[0.25,1],[0,1],[0,0.75],[0,0.5],[0,0.25]];outlineConnect=0;gradientColor=none;html=1;whiteSpace=wrap;fontSize=12;fontStyle=0;container=1;pointerEvents=0;collapsible=0;recursiveResize=0;shape=mxgraph.aws4.group;grIcon=mxgraph.aws4.group_vpc;strokeColor=#248814;fillColor=none;verticalAlign=top;align=left;spacingLeft=30;fontColor=#AAB7B8;dashed=0;" vertex="1" parent="1">
          <mxGeometry x="780" y="120" width="990" height="790" as="geometry" />
        </mxCell>
        <mxCell id="9Flzm60PT0xl-Il_RI56-57" value="" style="group" vertex="1" connectable="0" parent="9Flzm60PT0xl-Il_RI56-52">
          <mxGeometry x="80" y="40.329999999999984" width="850" height="330" as="geometry" />
        </mxCell>
        <mxCell id="9Flzm60PT0xl-Il_RI56-3" value="" style="rounded=1;arcSize=10;dashed=1;strokeColor=#F59D56;fillColor=none;gradientColor=none;dashPattern=8 4;strokeWidth=2;fontColor=#1A1A1A;" vertex="1" parent="9Flzm60PT0xl-Il_RI56-57">
          <mxGeometry width="850" height="330" as="geometry" />
        </mxCell>
        <mxCell id="9Flzm60PT0xl-Il_RI56-56" value="&lt;b style=&quot;color: rgb(26 , 26 , 26) ; font-family: &amp;#34;helvetica&amp;#34; ; font-size: 12px ; font-style: normal ; letter-spacing: normal ; text-align: center ; text-indent: 0px ; text-transform: none ; word-spacing: 0px ; text-decoration: none&quot;&gt;&lt;font color=&quot;#ffb570&quot; style=&quot;font-size: 14px&quot;&gt;Availability Zone 1a&lt;/font&gt;&lt;/b&gt;" style="text;whiteSpace=wrap;html=1;fontSize=14;fontColor=#FFB570;" vertex="1" parent="9Flzm60PT0xl-Il_RI56-57">
          <mxGeometry x="32.278481012658226" y="12.281599918356273" width="172.15189873417722" height="36.84479975506881" as="geometry" />
        </mxCell>
        <mxCell id="9Flzm60PT0xl-Il_RI56-54" value="" style="group" vertex="1" connectable="0" parent="9Flzm60PT0xl-Il_RI56-57">
          <mxGeometry x="40" y="69.99309512264449" width="717" height="190.0187785710703" as="geometry" />
        </mxCell>
        <mxCell id="RIAhg5VTWYtp692ksJAz-29" value="Private subnet" style="points=[[0,0],[0.25,0],[0.5,0],[0.75,0],[1,0],[1,0.25],[1,0.5],[1,0.75],[1,1],[0.75,1],[0.5,1],[0.25,1],[0,1],[0,0.75],[0,0.5],[0,0.25]];outlineConnect=0;gradientColor=none;html=1;whiteSpace=wrap;fontSize=12;fontStyle=0;shape=mxgraph.aws4.group;grIcon=mxgraph.aws4.group_security_group;grStroke=0;strokeColor=#147EBA;fillColor=#E6F2F8;verticalAlign=top;align=left;spacingLeft=30;fontColor=#147EBA;dashed=0;" parent="9Flzm60PT0xl-Il_RI56-54" vertex="1">
          <mxGeometry x="439" y="3.999416289063163" width="278" height="184.60354824686073" as="geometry" />
        </mxCell>
        <mxCell id="RIAhg5VTWYtp692ksJAz-32" value="RDS" style="outlineConnect=0;dashed=0;verticalLabelPosition=bottom;verticalAlign=top;align=center;html=1;shape=mxgraph.aws3.rds;fillColor=#2E73B8;gradientColor=none;" parent="9Flzm60PT0xl-Il_RI56-54" vertex="1">
          <mxGeometry x="519" y="85.25887437925326" width="62" height="62.00645409400238" as="geometry" />
        </mxCell>
        <mxCell id="RIAhg5VTWYtp692ksJAz-15" value="Public subnet" style="points=[[0,0],[0.25,0],[0.5,0],[0.75,0],[1,0],[1,0.25],[1,0.5],[1,0.75],[1,1],[0.75,1],[0.5,1],[0.25,1],[0,1],[0,0.75],[0,0.5],[0,0.25]];outlineConnect=0;gradientColor=none;html=1;whiteSpace=wrap;fontSize=12;fontStyle=0;shape=mxgraph.aws4.group;grIcon=mxgraph.aws4.group_security_group;grStroke=0;strokeColor=#248814;fillColor=#E9F3E6;verticalAlign=top;align=left;spacingLeft=30;fontColor=#248814;dashed=0;" parent="9Flzm60PT0xl-Il_RI56-54" vertex="1">
          <mxGeometry y="3.999416289063163" width="280" height="186.01936228200714" as="geometry" />
        </mxCell>
        <mxCell id="RIAhg5VTWYtp692ksJAz-17" value="EC2" style="outlineConnect=0;dashed=0;verticalLabelPosition=bottom;verticalAlign=top;align=center;html=1;shape=mxgraph.aws3.ec2;fillColor=#F58534;gradientColor=none;" parent="9Flzm60PT0xl-Il_RI56-54" vertex="1">
          <mxGeometry x="110" y="85.25887437925326" width="60" height="65.1067767987025" as="geometry" />
        </mxCell>
        <mxCell id="9Flzm60PT0xl-Il_RI56-14" value="" style="shape=image;verticalLabelPosition=bottom;labelBackgroundColor=#ffffff;verticalAlign=top;aspect=fixed;imageAspect=0;image=data:image/png,iVBORw0KGgoAAAANSUhEUgAAAEAAAABACAYAAACqaXHeAAAABGdBTUEAALGPC/xhBQAAACBjSFJNAAB6JgAAgIQAAPoAAACA6AAAdTAAAOpgAAA6mAAAF3CculE8AAAABmJLR0QA/wD/AP+gvaeTAAAACXBIWXMAADsOAAA7DgHMtqGDAAAAB3RJTUUH5AYMCjAVO5vu4gAABuRJREFUeNrt2WuMXVUVB/DfvjMDbSm1SBVKp1IUBCEgVVBBVFAqvoISQKvE0EFFURSLMCRIJAoIXKD4BILiII1SIwhqMELRD9BiEAPFgloKKH3SFkiF4dH2zt1+WOe2d6YznSlt0pl4/smde+aeffbea+31+K91KFGiRIkSJUqUKFGiRIkSJf7vkHb0BgZER7VxNRF74HE9lW6tdX7Wud2WqexoOQfBJHwX30GXlvqnZKOalLPNaN3REg6CvbABp+FIfAHH4hEd1dW4X648KWW6zn1VC7TsaAkHxNRpZM9KDsdY3Iq78RzG4CicIuWxeMzUaessmLvVywzfGEAjDrwB38T38E8RD1qwEofiq8KVL8O/QNfQY8QwjwEZluAufLr4cRJOEYf3EL5SfM/C4WDGFUNeYfi6ACy4O1yBF/BR3Ien8AS6ZSQ1OT8gpQpm4mHJKlOPY8Fdgy4x3INgoGfDMi1ty/Eu3KGrc2Wv+x3VOnk2aRwuwueprxnK1MPcBYQ/t7TBnfgwxm2WBrs6kTJuwBp8jXoaSroc/grYiHy/CHynDqgoXsb3cTSVtw5l1pGhgE0nvAqvDKKohZiP6XIymBWMDAWEEG3YG/cOoij4HQ6T8uTBph4ZCgiMKr5XqGNGtW0L6e6v+A9OxhatYCQpAOqoqThYcoaUK/0HRDXMwUew55YmHEkKqAlKvBs+gS9iyhbGz8dqnIGxTqsyY3NLGN5EqIEgQzUcKE70KJERJkj1+Q6dFqSpgQVzmTqthicLZR2H0ZIlfWuGkWEBm7j9nfiQqA9+gvFy5W39lzR1cuUhkTZ/gAPwbRyoo7oxLgzvYqgZm3z9YOwp+7NkCt6DW9A9YBHUUUVK5GMEpb5Fzn+R0ghSQF987grqGV6HXWRL0ePGPkoIxY3HO0TMmII34UysGRku0B9uKBog9bxGttKW3flo3IT98SdcLFkr0VpoaB+8GztjHnmRXOHGpi5LjJuAadhFlKAPoT7U+nvZrI2Xu+Et2KmfYQnL8Vgh1BRMtrm71uhcnFmVomt0MMab5R9Y0352r7HzcIfoJTxDXignujq14jX4sSg0isHpZCk/3Uf4Nlwo6u8kiMbxWLiVZ3cQrsY7Q4go+pvQiutxAc7Cl4WZr+tn3BMp+oV/xOV4Lz6D2zeO6uqko/oMviFS4qWkLtyqo1pvxe7FabwouPaROAHX6ricrvMaUx1WTL5aEJKJeO1QpW46/VOFFf0S10mbqaAiWSI7FOcLq7xEUOCGmfcIn74Y54g+QRtG6y+1hxLWiq7RHHwMR9hlt/mNfkBCN36Fc/FJ/IL0fFMEPbEQ+Kd4M44otr6rjuqJxaZuxwsbXSIsZz8c277Q0hPGP3jnDyfPmVis+Tfc2z5zQGW9QfT+luBGLG+Y9fK4vzhzemEdYwY9gdhT1lH9N67D3l5cu1NzQ6RFNB3fVwh3tCgqkPcXvPqZUIxvFc9k4VeXYz3uEd2bZhyGazD3tpXH3/WjyXOWFgd+DB5eNku9aa5louNTa3q+Xnw2IRd/k3qx76Fns65OZlyxAY/TuyOU8DRmCzeYjj8Um/l4cSI340G9I262uR/3j57RWpJra9k44a83FXMlERBfwG+EXw9tzleDpuDetyWWCqEXi/77IVghfP/lQjl96/GGAINj7OJ00pOnL52zz/Vnidizl/BdIjNcJPp6i/Bo86O1dlZcqTLmJfXuVHQHtgP6KqAifO5mYebTRav5ENGZvcfmp5+GqIAM87r31X62HhFMV8OSKq1jqK93kghury8UkBUm3rrM7vWKM7rHeiN+LVlQ7CXrbYVbxW0GaoreJgLMycIsewqlvCgibQON4PmcOM334+Em2tojOAbYs+2/6cEDLjmwPsseept4rq83Fm8v/l+Bl4TV7SXa4PcJN5mO43LEp0l4BGsFb/iASM1rmrJOMxZhZTNHaC02sq64bgSbv+PnOLv4fS5+3zTR+mJzjc1egK/j0mKOhnBZU4Q+ZNTySo60daLegU5x0i8JTvLbQvFXiddhFxZ77Ck+E/AlPC+KorXFcxPxQcH3+zpJErxidl8LeFrk5oogNwohLhMmPwYP4Nni3jp0YpxNJOgWQUb2xa5Ni/eInHs+8sJXJtUTV+bYRH9evFqyGBuKu5eK1Nxuk7VuEEx0pmCv+xR7eVTEqv0MzE8W9f1h24qhMPXRIm2OLgRuFmwUPluc+DWSM2V5a15d9cWyKzW8fLIoaMZjdmJeLbH3zK2bb3u8GJkgqO1kffN14DnRr79qW4WH9nM2Xi596mrnQdqGvsa2WcBpVeSd5XSQoKx9URMxYhVq2yp8iRIlSpQoUaJEiRIlSpQoUWK74H+ULgVYDlpo6AAAACV0RVh0ZGF0ZTpjcmVhdGUAMjAyMC0wNi0xMlQxMDo0ODoyMSswMDowMEsVXQgAAAAldEVYdGRhdGU6bW9kaWZ5ADIwMjAtMDYtMTJUMTA6NDg6MjErMDA6MDA6SOW0AAAAIHRFWHRzb2Z0d2FyZQBodHRwczovL2ltYWdlbWFnaWNrLm9yZ7zPHZ0AAAAYdEVYdFRodW1iOjpEb2N1bWVudDo6UGFnZXMAMaf/uy8AAAAYdEVYdFRodW1iOjpJbWFnZTo6SGVpZ2h0ADUxMo+NU4EAAAAXdEVYdFRodW1iOjpJbWFnZTo6V2lkdGgANTEyHHwD3AAAABl0RVh0VGh1bWI6Ok1pbWV0eXBlAGltYWdlL3BuZz+yVk4AAAAXdEVYdFRodW1iOjpNVGltZQAxNTkxOTU4OTAx0DeudwAAABN0RVh0VGh1bWI6OlNpemUAMTYyMTNCQgN6DaoAAABYdEVYdFRodW1iOjpVUkkAZmlsZTovLy4vdXBsb2Fkcy81Ni9OdnZWb1E1LzI0MTUvbXlzcWxfb3JpZ2luYWxfd29yZG1hcmtfbG9nb19pY29uXzE0NjQxNy5wbme4628OAAAAAElFTkSuQmCC;" vertex="1" parent="9Flzm60PT0xl-Il_RI56-54">
          <mxGeometry x="599" y="35.653711104051354" width="68" height="68" as="geometry" />
        </mxCell>
        <mxCell id="9Flzm60PT0xl-Il_RI56-17" value="" style="group" vertex="1" connectable="0" parent="9Flzm60PT0xl-Il_RI56-54">
          <mxGeometry x="199" width="68" height="111.61161736920428" as="geometry" />
        </mxCell>
        <mxCell id="9Flzm60PT0xl-Il_RI56-13" value="" style="shape=image;verticalLabelPosition=bottom;labelBackgroundColor=#ffffff;verticalAlign=top;aspect=fixed;imageAspect=0;image=data:image/png,iVBORw0KGgoAAAANSUhEUgAAAEAAAABACAYAAACqaXHeAAAABGdBTUEAALGPC/xhBQAAAAFzUkdCAK7OHOkAAAAgY0hSTQAAeiYAAICEAAD6AAAAgOgAAHUwAADqYAAAOpgAABdwnLpRPAAAAAZiS0dEAP8A/wD/oL2nkwAAAAlwSFlzAADsOAAA7DgBcSvKOAAAB8dJREFUeNrtm39QlMcZxz/7HseBgIhBlPFHJIWklBAikwg3WE3aTOI0aW0zSX/YptMmLU1BW6HTmkynztjGTs00VaIwMcaQ/vgjaauWtnHSaWZMowGM0qij4FhLHCkVEcXz5LiDu3f7xx6ocD/e4967g5Tnn5t7d+/Z3c89++ze7vdg2qbt/9pEIhrVGuzoEoQgDZCASwJUtcS/L/FuUNTbkZAiBI8Ce4E/AA8LSBYN9rgDiFsE+AenAfcC64BHgHR/sQPYA9QBxwEp4xQNMQegNZSjCwtC6rcCTwPfAOYFqd4FNAI7gP8CxBpE7AA0VCDQAWYBX/UPvshAmzrwAbAd2A045ZAF1h2cOgD84Z4MPIgK90/630dibmA/sNX/OhyLaDAVwA3zfAnwPWAVkBml237gj6j80I7J+cEUAKK+HDQBkgVcn+fzTeulsrPALuAVoAfMyQ/RAaizI6wAZABfAqqBu4jd8qoDR1DR0AQMRAthwgD84W4F7gdqgfsAW4wGPtYGgb+j8sO7gG+iICIG4B+4AIqBtcCjwOw4DXys9QFvANsE+mmJkLKqNTYAbtil5QKVwJPAogQNfKydQeWGRqAXjOcHQwD8g09HfdtrgVISsI0OYz7gfdS0+AswaARCSAD+gVuA5ah5/gCQEuozUspRz8LEVXbErxBhfbqAfX4QrYTJD0G9+Qc/F/gx8BUgO3QHdZItycyyZWDVLDg81xjwDiKloU6H9JuSZGNOShaDPg+X3Q4kEgPB2wv8BtgM9AWDkBTGSSUq5MN0UmKfV0xtyWoKsxZjs1g57+rjne4P2NnRRJezByEinzFS6pTNvZNnSp/grlvycQ672Nv5D+qOv8GVoWvhIiwHFbUngF8HqxQOQK6RTubNnE/98h+yJPv20ef5mQtYllvCgwuXUn3gl7T1dkQEQUrJ/PQc6pbVUDa3aPT5nbM/xqDXw/NHf2fEjUaYnagJiUyyclE5d2cXjCsRCMrmFrFtWS35mQuRUo/ArU5ZThGlc+646bFFaKzKW85Ma5p/KkRnJgAQLM7IDRmO9nnFbLZXk50y63qSNGDZqZlYtfFBmm6dgc2SjMHxh6xlylJmJMl9Pm8FG+59ihlJtgi+ORHB04lZ3NZyTQgqP7GKyqIvoCXmKDKxAABslmQ23PNNvpj/gKF8YOY+YlIAAMiyzeQX5VVU5JYgpS8MAFMs9jkgmOlSBkx6t2bMY2vFOgqz8kJEgozLkW1MAbT3d/K3rkMBy+7JKWSzfQ05qVlBIUz5KdA36GB9y3YOXTgZsPyRxRVsXFpJunWGKWv6pAOgCY3Tji5q36vj31e7x5ULBE8Wfpbq4sewJOjHZcxb1YRGc88xnmlp4JLbMa48WUvi2dKvs/r2h8blC5NiInFJcNSExp7O/TzX1ojbNzSuODM5nZ+XPc1980tvWBmEeQgSDgCBjmTHyb3sbG9CD7AyLEjPYUvFOopvKRhNihHsmic7ADXfB71DbDz8Cns69wesc3d2Ac/b15Cblg1S5yMUAX4IQnDJ7WB9Sz2tF04ErLNyUTmbyr5Lmi09YKRMaQAKgkbn1W5qDm7lX46ugHWeuGMlPyhZjVWzfPQAjEBovXCC9S319LmvjCtPEhZqSr7M4/mfjnkUJOxkVwiNpg/fZePhXbi87nHls2wZrMhdghbFeeKkBgCgI9nZ3sRLJ/eiB9gOR3OYOiUACAQe3zDPHWnk9TNvJ6QPCb/cEELQ77nKs60NHDh/LBZNTIKdYFgIGuecPdQc3EJ7/4dxbdscAEEztfEMLoRG28UOftS8nQuDl0M3Z+IGyZRj8bPOnoAl14YH8Und8K96ISzsO9fMhvdfxjnsClrvktuhVg4TcqQJADT2nWum7eKpm546h1389vRbeLyeiLxJBI0df+Unh3ZwMcAewTns4rVTbzIwPGjKgUnQrZZ4eCHAUmBFKAdCCK54nLRdPIUtKRmPb4iO/rNsanuN3Z370SMMVwHo6Bzu7eC9nuMMeN14fEN0Xevl2KUz/OzIq+zufMeoX4nSFx3lzf8EbS9wgbocXQj8FHiM66LGwC1JHatmJTXJxrDuxe11wwTuA8f6tAgNW5INgcCre/H4hoxesTlQd4KbgN5gl6NGrsdTgE+h5G73E+Y+ceTm1swtzMh3bdDnEEo+swU4AAxN6Hp8xLQG+0gHZgOPo+Rvhcb7EzfTgaPAi8CfAIfUgTWhRRIRSWRmV93G5YbOPOBbwFMo/cBksG7gJaBRCNmt6xpUNxsbV6QtjRE9fx8lhpyRoIE7gd8D9cAxQI9ULRatTC4VeAiVH5YRYlUx2bwo+eyv/K+euMnkAkAAmIMSSq4FCqL1G8IkSvGxDSWkviwAPQqxpDlS2QY7Eh2BVgB8GyWVnWPy4M8DLwOvCos8J31iEkhlA4BATYOlQA3qTxGpUbodQP2Z4kWE+CdSRjzP4wZgDIg04DOo/FBO5NtuH2odfwF4G3BPerl8AAiglsrVwBrgNgMflcApoAF4HWQfaMgqY8vapAFwMwgpQHwcJbv7GsE1h70oyesuKUSnkHIK/2UmIAiSUNOhFjU9RtTlLuDPKBn8YaJQf09aAGNApAOfA76DWtPrgbcAV7wGnjAAIxCkriM0LRPQNaE5danHPNynbdqmbZz9D2djo/QTw8suAAAAJXRFWHRkYXRlOmNyZWF0ZQAyMDIwLTAxLTEwVDE2OjM2OjIxKzAwOjAwEZwJzQAAACV0RVh0ZGF0ZTptb2RpZnkAMjAyMC0wMS0xMFQxNjozNjoyMSswMDowMGDBsXEAAABGdEVYdHNvZnR3YXJlAEltYWdlTWFnaWNrIDYuNy44LTkgMjAxOS0wMi0wMSBRMTYgaHR0cDovL3d3dy5pbWFnZW1hZ2ljay5vcmdBe+LIAAAAGHRFWHRUaHVtYjo6RG9jdW1lbnQ6OlBhZ2VzADGn/7svAAAAGHRFWHRUaHVtYjo6SW1hZ2U6OmhlaWdodAA1MTLA0FBRAAAAF3RFWHRUaHVtYjo6SW1hZ2U6OldpZHRoADUxMhx8A9wAAAAZdEVYdFRodW1iOjpNaW1ldHlwZQBpbWFnZS9wbmc/slZOAAAAF3RFWHRUaHVtYjo6TVRpbWUAMTU3ODY3NDE4MVevfCsAAAARdEVYdFRodW1iOjpTaXplADE1S0JC7LegNwAAAEt0RVh0VGh1bWI6OlVSSQBmaWxlOi8vLi91cGxvYWRzLzU2LzhidnMzYVYvMjEwNy9maWxlX3R5cGVfbmdpbnhfaWNvbl8xMzAzMDUucG5nScaEUwAAAABJRU5ErkJggg==;container=1;" vertex="1" parent="9Flzm60PT0xl-Il_RI56-17">
          <mxGeometry y="45.47139966893508" width="64" height="64" as="geometry" />
        </mxCell>
        <mxCell id="9Flzm60PT0xl-Il_RI56-15" value="" style="shape=image;verticalLabelPosition=bottom;labelBackgroundColor=#ffffff;verticalAlign=top;aspect=fixed;imageAspect=0;image=data:image/png,iVBORw0KGgoAAAANSUhEUgAAAEAAAABACAMAAACdt4HsAAAABGdBTUEAALGPC/xhBQAAACBjSFJNAAB6JgAAgIQAAPoAAACA6AAAdTAAAOpgAAA6mAAAF3CculE8AAACPVBMVEUAAAAAmQAAmgAAlAAAlwAAmAAAnAAAmwAAmQAAmQAAmgAAmgAAmQAAmAAAmAAAmQAAmQAAmQAAmQAAmQAAmQAAmQAAmQAAmQAAmQAAmQAAmQAAmQAAmQAAmQAAmQAAmQAAmQAAmQAAmQAAmQAAmQAAmQAAmQAAmQAAmQAAmQAAmQAAmQAAmQAAmQAAmQAAmQAAmQAAmQAAmQAAmQAAmQAAmQAAmQAAmQAAmQAAmQAAmQAAmQAAmQAAmQAAmQAAmQAAmQAAmQAAmQAAmQAAmQAAmQAAmQAAmQAAmQAAmQAAmQAAmQAAmQAAmQAAmQAAmQAAmQAAmQAAmQAAmQAAmQAAmQAAmQAAmQAAmQAAmQAAmQAAmQAAmQAAmQAAmQAAmQAAmAAAmQAAmQAAmQAAmQAAmQAAmQAAmQAAmQAAmQAAmQAAmQAAmQAAmQAAmQAAmQAAmQAAmQAAmQAAmQAAmQAAmQAAmQAAmQAAmQAAmQAAmQAAmQAAmQAAmQAAmQAAmQAAmQAAmQAAmQAAmQAAmQAAmQAAmQAAmQAAmQAAmQAAmQAAmQAAmQAAmQAAmQAAmQAAmQAAmQAAmQAAmQAAmQAAmQAAmQAAmQAAmQAAmQAAmQAAmQAAmQAAmQAAmQAAmQAAmQAAmQAAmQAAmQAAmQAAmQAAmQAAmQAAmQAAmQAAmQAAmQAAmQAAmQAAmQAAmQAAmQAAmQAAmQAAmQAAmQAAmQAAmQAAmQAAmQAAmQAAmQAAmQAAmQAAmQD////tP/kPAAAAvXRSTlMAAAAAAAAAAAMEAgEBAQIhlZsmAmiiKmlqVAhSrFYjk18Qd5RAn1MkknQMcf3BJxjXhQ6y8UcW0xJk1Rf8hLPsJb3vP8Ae4ZZd+e3g4/oaZxGXc/e+Hb8byu4cr+k3E5oIfsX+eqMGQuJ7xBSd6ni7urwvOgkLDzM8NjU+FaHy5CCRmI3Cw8nQ1t19pfN12i2434E79KdezyLULubw+6r1Pc5IcuhJGXBvoH80V1u3+AqprW1s2TA4TURGTEMmbcYYAAAAAWJLR0S+pNyDwwAAAAlwSFlzAAA7DgAAOw4BzLahgwAAAAd0SU1FB+QGDAowEqX/e0EAAALBSURBVFjD7ZT7X4txFMefkz3syVJaF208rGJklKSwaUN7wiqqrelGjJmSliKSbnJLRSJJya0it1xzO/+b72Wjl3/A6+X1fH767vv9ft7nPOec7wRBlSpVqlSpmifQSsBXEZHSAs1fpxGLJVEUdVFi+GfkQoBICDnEJeQgOmZpLNsAfVx8LAgACYlMy5IMADrj8hUgr1ylZxYwJafIkLp6jZYZwLx2XZqw3oIbNlICpGfgJgLI3IxcWVsAsnMwZ+s23G5lDlOKDXdoc9FOgSI4duKu3UIyuZoXC6IATgXzAWDPXtznUpSCQoyX6J5StB8VJ41woNiC5EpJKSNQP7o9DIBlDuLkAO9BLDdWOJ1yJVZVzwfAocPET67UHKGEKOo/mgAUYPOh2xwCaI4hHvfTeCcyAiehqDZQm80AUHfKgoU2GoMS6k83MD8DBN2IjTIHnFGwqgmk5rPnrC3nL1gNrRdbtXEU0HbJh+35HeSKAAZCsIT8FBDjKENs6PQQgNiF2K0zXe65cvXa9RsFveEMPG03fdjXL7soQAA/uYYDt1j3kulnOUgOt1MHyeoOYhcM3eV9sDd5eQ0Gq++R+P1aliSpv7mRng7rfwNoRX33y8lq5AEGRuviBx6OjSM+kkJFtNdasL1E4l/J+oeBCd7NEABkyqSniTYs1vut5sdPMOtpuAt0Kp5J4Uax+rf08m5yAJkqOcgAUOfG55Nez9SkHXOb/wCypsnEc4CZ9491c1jHikgSWQQjQZ6LkeTmUlz1OGEkIV3omiKAsRd0ehlA/5LXH2pmSrHjlfDaXv6GT3b023fTJMrs+9AoB9MA0j7YKg1JE/aPfPpNebZPuu7xHtY/MMz0ff4i+Ofm/OylaCA91UT3W1Lyqbq/AqlX0TcvzH5v4i8WNAk/MqHtZwV/jmAYGtX9638TVapUqVL1n+kXYAYb8BK3hFgAAAAldEVYdGRhdGU6Y3JlYXRlADIwMjAtMDYtMTJUMTA6NDg6MTgrMDA6MDBQAh84AAAAJXRFWHRkYXRlOm1vZGlmeQAyMDIwLTA2LTEyVDEwOjQ4OjE4KzAwOjAwIV+nhAAAACB0RVh0c29mdHdhcmUAaHR0cHM6Ly9pbWFnZW1hZ2ljay5vcme8zx2dAAAAGHRFWHRUaHVtYjo6RG9jdW1lbnQ6OlBhZ2VzADGn/7svAAAAGHRFWHRUaHVtYjo6SW1hZ2U6OkhlaWdodAA1MTKPjVOBAAAAF3RFWHRUaHVtYjo6SW1hZ2U6OldpZHRoADUxMhx8A9wAAAAZdEVYdFRodW1iOjpNaW1ldHlwZQBpbWFnZS9wbmc/slZOAAAAF3RFWHRUaHVtYjo6TVRpbWUAMTU5MTk1ODg5OHnrx60AAAASdEVYdFRodW1iOjpTaXplADk4MDhCQgMaUVkAAABPdEVYdFRodW1iOjpVUkkAZmlsZTovLy4vdXBsb2Fkcy81Ni9OdnZWb1E1LzI0MTUvbmdpbnhfb3JpZ2luYWxfbG9nb19pY29uXzE0NjQxMy5wbmcNfJ2xAAAAAElFTkSuQmCC;" vertex="1" parent="9Flzm60PT0xl-Il_RI56-17">
          <mxGeometry x="4" width="64" height="64" as="geometry" />
        </mxCell>
        <mxCell id="9Flzm60PT0xl-Il_RI56-20" value="" style="endArrow=classic;html=1;rounded=0;fontColor=#1A1A1A;entryX=0;entryY=0.5;entryDx=0;entryDy=0;entryPerimeter=0;" edge="1" parent="9Flzm60PT0xl-Il_RI56-54" source="RIAhg5VTWYtp692ksJAz-17" target="RIAhg5VTWYtp692ksJAz-32">
          <mxGeometry relative="1" as="geometry">
            <mxPoint x="349" y="95.59328339492032" as="sourcePoint" />
            <mxPoint x="509" y="95.59328339492032" as="targetPoint" />
            <Array as="points">
              <mxPoint x="290" y="116.67690487735553" />
            </Array>
          </mxGeometry>
        </mxCell>
        <mxCell id="9Flzm60PT0xl-Il_RI56-21" value="MySQL" style="edgeLabel;resizable=0;html=1;align=center;verticalAlign=middle;fontColor=#1A1A1A;strokeColor=#1A1A1A;" connectable="0" vertex="1" parent="9Flzm60PT0xl-Il_RI56-20">
          <mxGeometry relative="1" as="geometry" />
        </mxCell>
        <mxCell id="9Flzm60PT0xl-Il_RI56-58" value="" style="group" vertex="1" connectable="0" parent="9Flzm60PT0xl-Il_RI56-52">
          <mxGeometry x="80" y="420" width="850" height="330" as="geometry" />
        </mxCell>
        <mxCell id="9Flzm60PT0xl-Il_RI56-59" value="" style="rounded=1;arcSize=10;dashed=1;strokeColor=#F59D56;fillColor=none;gradientColor=none;dashPattern=8 4;strokeWidth=2;fontColor=#1A1A1A;" vertex="1" parent="9Flzm60PT0xl-Il_RI56-58">
          <mxGeometry width="850" height="330" as="geometry" />
        </mxCell>
        <mxCell id="9Flzm60PT0xl-Il_RI56-60" value="&lt;b style=&quot;color: rgb(26 , 26 , 26) ; font-family: &amp;#34;helvetica&amp;#34; ; font-size: 12px ; font-style: normal ; letter-spacing: normal ; text-align: center ; text-indent: 0px ; text-transform: none ; word-spacing: 0px ; text-decoration: none&quot;&gt;&lt;font color=&quot;#ffb570&quot; style=&quot;font-size: 14px&quot;&gt;Availability Zone 1c&lt;/font&gt;&lt;/b&gt;" style="text;whiteSpace=wrap;html=1;fontSize=14;fontColor=#FFB570;" vertex="1" parent="9Flzm60PT0xl-Il_RI56-58">
          <mxGeometry x="32.278481012658226" y="12.281599918356273" width="172.15189873417722" height="36.84479975506881" as="geometry" />
        </mxCell>
        <mxCell id="9Flzm60PT0xl-Il_RI56-61" value="" style="group" vertex="1" connectable="0" parent="9Flzm60PT0xl-Il_RI56-58">
          <mxGeometry x="40" y="69.99309512264449" width="717" height="190.0187785710703" as="geometry" />
        </mxCell>
        <mxCell id="9Flzm60PT0xl-Il_RI56-62" value="Private subnet" style="points=[[0,0],[0.25,0],[0.5,0],[0.75,0],[1,0],[1,0.25],[1,0.5],[1,0.75],[1,1],[0.75,1],[0.5,1],[0.25,1],[0,1],[0,0.75],[0,0.5],[0,0.25]];outlineConnect=0;gradientColor=none;html=1;whiteSpace=wrap;fontSize=12;fontStyle=0;shape=mxgraph.aws4.group;grIcon=mxgraph.aws4.group_security_group;grStroke=0;strokeColor=#147EBA;fillColor=#E6F2F8;verticalAlign=top;align=left;spacingLeft=30;fontColor=#147EBA;dashed=0;" vertex="1" parent="9Flzm60PT0xl-Il_RI56-61">
          <mxGeometry x="439" y="3.999416289063163" width="278" height="184.60354824686073" as="geometry" />
        </mxCell>
        <mxCell id="9Flzm60PT0xl-Il_RI56-64" value="Public subnet" style="points=[[0,0],[0.25,0],[0.5,0],[0.75,0],[1,0],[1,0.25],[1,0.5],[1,0.75],[1,1],[0.75,1],[0.5,1],[0.25,1],[0,1],[0,0.75],[0,0.5],[0,0.25]];outlineConnect=0;gradientColor=none;html=1;whiteSpace=wrap;fontSize=12;fontStyle=0;shape=mxgraph.aws4.group;grIcon=mxgraph.aws4.group_security_group;grStroke=0;strokeColor=#248814;fillColor=#E9F3E6;verticalAlign=top;align=left;spacingLeft=30;fontColor=#248814;dashed=0;" vertex="1" parent="9Flzm60PT0xl-Il_RI56-61">
          <mxGeometry y="3.999416289063163" width="280" height="186.01936228200714" as="geometry" />
        </mxCell>
        <mxCell id="9Flzm60PT0xl-Il_RI56-8" value="" style="rounded=1;arcSize=10;dashed=1;fillColor=none;gradientColor=none;dashPattern=8 3 1 3;strokeWidth=2;fontColor=#1A1A1A;" vertex="1" parent="9Flzm60PT0xl-Il_RI56-58">
          <mxGeometry x="450" y="-360" width="330" height="670" as="geometry" />
        </mxCell>
        <mxCell id="9Flzm60PT0xl-Il_RI56-81" value="" style="group" vertex="1" connectable="0" parent="1">
          <mxGeometry x="750" y="313.75" width="70" height="108" as="geometry" />
        </mxCell>
        <mxCell id="9Flzm60PT0xl-Il_RI56-75" value="" style="sketch=0;outlineConnect=0;fontColor=#232F3E;gradientColor=none;fillColor=#4D27AA;strokeColor=none;dashed=0;verticalLabelPosition=bottom;verticalAlign=top;align=center;html=1;fontSize=12;fontStyle=0;aspect=fixed;pointerEvents=1;shape=mxgraph.aws4.internet_gateway;" vertex="1" parent="9Flzm60PT0xl-Il_RI56-81">
          <mxGeometry width="68" height="68" as="geometry" />
        </mxCell>
        <mxCell id="9Flzm60PT0xl-Il_RI56-80" value="Internet&lt;br&gt;gateway" style="text;html=1;align=center;verticalAlign=middle;resizable=0;points=[];autosize=1;strokeColor=none;fillColor=none;fontSize=14;fontColor=#1A1A1A;" vertex="1" parent="9Flzm60PT0xl-Il_RI56-81">
          <mxGeometry y="68" width="70" height="40" as="geometry" />
        </mxCell>
        <mxCell id="9Flzm60PT0xl-Il_RI56-86" value="" style="group" vertex="1" connectable="0" parent="1">
          <mxGeometry x="280" y="322" width="66" height="91.5" as="geometry" />
        </mxCell>
        <mxCell id="9Flzm60PT0xl-Il_RI56-9" value="" style="outlineConnect=0;dashed=0;verticalLabelPosition=bottom;verticalAlign=top;align=center;html=1;shape=mxgraph.aws3.users;fillColor=#D2D3D3;gradientColor=none;fontColor=#1A1A1A;strokeColor=#1A1A1A;" vertex="1" parent="9Flzm60PT0xl-Il_RI56-86">
          <mxGeometry width="66" height="63" as="geometry" />
        </mxCell>
        <mxCell id="9Flzm60PT0xl-Il_RI56-74" value="&lt;font color=&quot;#1a1a1a&quot;&gt;&lt;span&gt;&lt;b&gt;users&lt;/b&gt;&lt;/span&gt;&lt;/font&gt;" style="text;html=1;align=center;verticalAlign=middle;resizable=0;points=[];autosize=1;strokeColor=none;fillColor=none;fontSize=14;fontColor=#FFB570;" vertex="1" parent="9Flzm60PT0xl-Il_RI56-86">
          <mxGeometry x="8" y="71.5" width="50" height="20" as="geometry" />
        </mxCell>
        <mxCell id="9Flzm60PT0xl-Il_RI56-91" value="" style="edgeStyle=orthogonalEdgeStyle;rounded=0;orthogonalLoop=1;jettySize=auto;html=1;fontSize=14;fontColor=#1A1A1A;entryX=0;entryY=0.5;entryDx=0;entryDy=0;entryPerimeter=0;" edge="1" parent="1" source="9Flzm60PT0xl-Il_RI56-75" target="RIAhg5VTWYtp692ksJAz-17">
          <mxGeometry relative="1" as="geometry">
            <mxPoint x="1010" y="354" as="targetPoint" />
            <Array as="points" />
          </mxGeometry>
        </mxCell>
        <mxCell id="9Flzm60PT0xl-Il_RI56-92" value="subnet group" style="text;html=1;align=center;verticalAlign=middle;resizable=0;points=[];autosize=1;strokeColor=none;fillColor=none;fontSize=14;fontColor=#1A1A1A;" vertex="1" parent="1">
          <mxGeometry x="1330" y="190" width="100" height="20" as="geometry" />
        </mxCell>
        <mxCell id="9Flzm60PT0xl-Il_RI56-93" value="&lt;font color=&quot;#3399ff&quot;&gt;SSH / HTTP / HTTPS&lt;/font&gt;" style="text;html=1;align=center;verticalAlign=middle;resizable=0;points=[];autosize=1;strokeColor=none;fillColor=none;fontSize=14;fontColor=#1A1A1A;" vertex="1" parent="1">
          <mxGeometry x="430" y="357.75" width="150" height="20" as="geometry" />
        </mxCell>
        <mxCell id="9Flzm60PT0xl-Il_RI56-1" value="&lt;font color=&quot;#1a1a1a&quot;&gt;AWS Cloud&lt;/font&gt;" style="sketch=0;outlineConnect=0;gradientColor=none;html=1;whiteSpace=wrap;fontSize=12;fontStyle=0;shape=mxgraph.aws4.group;grIcon=mxgraph.aws4.group_aws_cloud;strokeColor=#1A1A1A;fillColor=none;verticalAlign=top;align=left;spacingLeft=30;fontColor=#AAB7B8;dashed=0;" vertex="1" parent="1">
          <mxGeometry x="730" y="60" width="1090" height="890" as="geometry" />
        </mxCell>
      </root>
    </mxGraphModel>
  </diagram>
</mxfile>
